# xmcd
#
# Track frame offsets:
# 150
# 15987
# 29415
# 45187
# 61400
# 79830
# 96279
# 108870
# 128502
# 141667
# 157355
# 167650
# 181327
# 194537
#
# Disc length: 2778 seconds
#
#
# Revision: 0
# Processed by: cddbd v1.5.2PL0 Copyright (c) Steve Scherf et al.
# Submitted via: FreeRIP 2.96 
#
DISCID=b80ad80e
DTITLE=Lourenzo and Lorival - Terra Molhada
DYEAR=1900
DGENRE=Sertanejo
TTITLE0=Chega de tantas promessas
TTITLE1=Chamada a cobrar
TTITLE2=Última carta
TTITLE3=A cruz do caminho
TTITLE4=Corinthians e Palmeiras
TTITLE5=Mágoa de boiadeiro
TTITLE6=Pé de guerra
TTITLE7=Exemplo de Humildade
TTITLE8=Mariquinha
TTITLE9=Terra Molhada
TTITLE10=Bica d'agua
TTITLE11=Foliao Conquistador
TTITLE12=O Menino e a Rosa
TTITLE13=Sanfona Xonada
EXTD=
EXTT0=
EXTT1=
EXTT2=
EXTT3=
EXTT4=
EXTT5=
EXTT6=
EXTT7=
EXTT8=
EXTT9=
EXTT10=
EXTT11=
EXTT12=
EXTT13=
PLAYORDER=
